<svg width="20" height="20" viewBox="0 0 20 20" fill="none" xmlns="http://www.w3.org/2000/svg">
  <path fillRule="evenodd" clipRule="evenodd" d="M10 2C8.89543 2 8 2.89543 8 4V6H6C4.89543 6 4 6.89543 4 8V10C4 11.1046 4.89543 12 6 12H8V14C8 15.1046 8.89543 16 10 16C11.1046 16 12 15.1046 12 14V12H14C15.1046 12 16 11.1046 16 10V8C16 6.89543 15.1046 6 14 6H12V4C12 2.89543 11.1046 2 10 2ZM10 4C10.5523 4 11 4.44772 11 5V7H9V5C9 4.44772 9.44772 4 10 4ZM6 8C5.44772 8 5 8.44772 5 9V9C5 9.55228 5.44772 10 6 10H14C14.5523 10 15 9.55228 15 9V9C15 8.44772 14.5523 8 14 8H6ZM9 11V13C9 13.5523 9.44772 14 10 14C10.5523 14 11 13.5523 11 13V11H9Z" fill="currentColor"/>
</svg>
